<svg xmlns="http://www.w3.org/2000/svg" fill="none" viewBox="0 0 560 330">
  <path fill="#E1DEFF" d="M0 0h560v330H0z"/>
  <g fill="#171751" opacity=".82">
    <path d="M246.958 105.299v119.4c-21.131-1.74-33.541-14.4-33.541-34.56v-50.28c0-20.16 12.41-32.82 33.541-34.56"/>
    <path d="M347.583 139.86v50.28c0 21.84-14.557 34.86-38.975 34.86h-56.216c-1.878 0-3.69-.06-5.434-.3V105.3c1.744-.24 3.556-.3 5.434-.3h56.216c24.418 0 38.975 13.02 38.975 34.86" opacity=".4"/>
    <path d="M324.038 133.799c-2.146-1.5-6.037-2.94-12.209-1.44l-19.991 4.92c-5.97 1.38-9.861 5.88-9.861 11.52v23.46c-1.543-.48-3.22-.84-4.964-.84-8.318 0-15.026 6.06-15.026 13.44s6.775 13.44 15.026 13.44c8.184 0 14.893-5.941 15.027-13.201 0-.06.067-.119.067-.179v-22.2l26.632-6.481v10.08c-1.543-.48-3.22-.839-5.031-.839-8.319 0-15.027 6.06-15.027 13.44 0 7.44 6.775 13.44 15.027 13.44 8.184 0 14.892-5.941 15.026-13.261 0-.06.067-.119.067-.239v-34.981c-.134-4.56-1.677-7.919-4.763-10.079m-47.092 55.5c-2.75 0-4.964-1.98-4.964-4.44s2.214-4.44 4.964-4.44 4.964 1.98 4.964 4.44-2.281 4.44-4.964 4.44m36.627-6c-2.75 0-4.964-1.98-4.964-4.44s2.214-4.44 4.964-4.44 4.965 1.98 4.965 4.44-2.214 4.44-4.965 4.44"/>
  </g>
</svg>
