<svg xmlns="http://www.w3.org/2000/svg" xmlns:xlink="http://www.w3.org/1999/xlink" viewBox="0 0 540 540">
  <defs>
    <path id="a" d="m158.078 153.32.11.67c-.19.25-.36.51-.52.77l-.13-.77-2.23-12.94c-.09-.51.26-1 .77-1.09l4.51-.77c.09-.02.19.01.25.07l-4.11.7c-.51.09-.85.58-.77 1.09z"/>
    <path id="b" d="M191.308 231.73h-.66c-6.51 0-12.95-1.79-18.37-5.45a33 33 0 0 1-3.05-2.33 1 1 0 0 0-.1-.09c-4.5-3.92-6.97-9.72-6.97-15.73v-37.39c-4.05-1.78-6.85-5.78-6.78-10.39.04-2.38.83-4.57 2.16-6.36.13-.18.27-.36.41-.53.04-.05.08-.09.13-.14l.11.67c-.19.25-.36.51-.52.77a10.8 10.8 0 0 0-1.63 5.59c-.07 4.61 2.72 8.61 6.77 10.39v37.39c0 6.01 2.47 11.81 6.97 15.73.04.03.07.06.11.09 1 .87 2.03 1.64 3.05 2.33 5.41 3.66 11.85 5.45 18.37 5.45"/>
    <path id="c" d="M179.263 159.358c.2.68-.311 1.427-1.14 1.67-.828.242-1.66-.113-1.86-.793-.198-.68.312-1.427 1.14-1.67s1.662.113 1.86.793"/>
    <path id="d" d="M179.263 159.358c-.09-.154-2.69-8.156-2.69-8.156l-.616.18 2.77 7.82z"/>
    <path id="e" d="m175.957 151.382 3.539-2.391.95 3.059-3.466 1.905zm-3.08 9.818c.198.68-.312 1.428-1.14 1.67-.829.242-1.661-.112-1.86-.792s.311-1.428 1.14-1.67c.828-.242 1.66.113 1.86.792"/>
    <path id="f" d="M172.877 161.2c-.09-.153-2.69-8.155-2.69-8.155l-.616.18 2.77 7.82z"/>
    <path id="g" d="m169.571 153.225 3.538-2.392.951 3.06-3.467 1.905zm-2.781 9.032c.198.68-.312 1.427-1.14 1.67-.829.242-1.661-.113-1.86-.793s.311-1.427 1.14-1.67c.828-.242 1.66.113 1.86.793"/>
    <path id="h" d="M166.79 162.257c-.09-.154-2.69-8.156-2.69-8.156l-.617.18 2.77 7.82z"/>
    <path id="i" d="M244.67 135.499c.23.787-.36 1.652-1.32 1.932-.958.28-1.922-.13-2.152-.917s.36-1.652 1.319-1.933 1.923.13 2.153.918"/>
    <path id="j" d="M244.67 135.499c-.105-.178-3.114-9.44-3.114-9.44l-.713.208 3.206 9.051z"/>
    <path id="k" d="M304.122 176.164c-.285.568-1.076.747-1.768.4-.691-.347-1.021-1.089-.736-1.656.284-.568 1.076-.747 1.767-.4.692.347 1.022 1.088.737 1.656m4.751.486c-.285.568-1.076.747-1.767.4s-1.022-1.088-.737-1.656 1.076-.746 1.768-.4c.691.347 1.02 1.089.736 1.656"/>
    <path id="l" d="M307.484 173.33c-.239.54-.965.74-1.622.45s-.996-.963-.758-1.503c.239-.539.965-.74 1.622-.45s.996.964.758 1.503m4.429.237c-.238.54-.964.741-1.622.45s-.996-.963-.757-1.502c.238-.54.964-.741 1.621-.45.658.29.997.963.758 1.502"/>
  </defs>
  <g data-name="Layer 11" style="isolation:isolate">
    <g fill="#dbd7ff">
      <path d="M.087.174h540.13v538.435H.087z"/>
      <ellipse cx="273.217" cy="424.174" rx="161.456" ry="25.726"/>
      <path d="m162.075 151.642-1.115-12.18a.31.31 0 0 0-.362-.278l-4.516.777a.937.937 0 0 0-.765 1.083l2.465 14.324a11.6 11.6 0 0 1 4.293-3.726m5.067-1.458a12 12 0 0 1 1.66.057l-.949-16.706a.447.447 0 0 0-.471-.421l-4.869.277a.94.94 0 0 0-.883.989l.248 4.356.713 12.547a12 12 0 0 1 4.551-1.1Z"/>
      <path d="M189.056 203.47a20 20 0 0 1-.71-.685c-3.345-3.388-5.08-8.08-5.08-12.874l-.376-19.268.034-.272 2.268-8.21c.135-.488.332-.956.588-1.393l8.87-15.172c.806-1.38-.175-3.127-1.759-3.127h-3.069a3.64 3.64 0 0 0-3.271 2.048l-2.975 6.126v-18.636c0-.753-.603-1.364-1.346-1.364h-6.428v21.218-20.218h-7.121v17.81a12 12 0 0 0-1.632-.15 11.7 11.7 0 0 0-4.545.838 11.5 11.5 0 0 0-4.554 3.32c-1.564 1.884-2.524 4.268-2.563 6.882-.068 4.61 2.725 8.61 6.774 10.396v37.39c0 6.013 2.473 11.813 6.975 15.73l.103.089a33 33 0 0 0 3.049 2.332c5.418 3.66 11.859 5.45 18.37 5.45h65.53v-23.826H200.49a17 17 0 0 1-11.435-4.435"/>
      <use xlink:href="#a"/>
      <use xlink:href="#b"/>
      <path d="M201.238 207.834c-2.372-.003-4.733-.365-6.98-1.127l-.051-.018c-1.129-.384-2.217-1.146-3.057-1.581l-.137 1.782a22 22 0 0 0-.066 1.602 215 215 0 0 1-3.736 23.069 32 32 0 0 0 2.57.16c2.81.06 4.214.091 6.79.02 2.124-.058 15.426-.091 59.703-.01v-23.827zm-21.975-48.476c.2.68-.311 1.427-1.14 1.67-.828.242-1.66-.113-1.86-.793-.198-.68.312-1.427 1.14-1.67s1.662.113 1.86.793"/>
      <use xlink:href="#c"/>
      <use xlink:href="#d"/>
      <use xlink:href="#e"/>
      <path d="M172.877 161.2c.198.68-.312 1.428-1.14 1.67-.829.242-1.661-.112-1.86-.792s.311-1.428 1.14-1.67c.828-.242 1.66.113 1.86.792"/>
      <use xlink:href="#f"/>
      <use xlink:href="#g"/>
      <path d="M166.79 162.257c.198.68-.312 1.427-1.14 1.67-.829.242-1.661-.113-1.86-.793s.311-1.427 1.14-1.67c.828-.242 1.66.113 1.86.793"/>
      <use xlink:href="#h"/>
      <path d="m163.483 154.281 3.539-2.391.95 3.059-3.466 1.905zm206.61-9.619c0-10.513-8.523-19.036-19.037-19.036 10.514 0 19.037-8.523 19.037-19.037 0 10.514 8.523 19.037 19.037 19.037-10.514 0-19.037 8.523-19.037 19.036m-125.423-9.163c.23.787-.36 1.652-1.32 1.932-.958.28-1.922-.13-2.152-.917s.36-1.652 1.319-1.933 1.923.13 2.153.918"/>
      <use xlink:href="#i"/>
      <use xlink:href="#j"/>
      <path d="m240.843 126.267 4.096-2.768 1.1 3.541-4.013 2.205zm63.279 49.897c-.285.568-1.076.747-1.768.4-.691-.347-1.021-1.089-.736-1.656.284-.568 1.076-.747 1.767-.4.692.347 1.022 1.088.737 1.656"/>
      <use xlink:href="#k"/>
      <path d="M308.873 176.65c-.285.568-1.076.747-1.767.4s-1.022-1.088-.737-1.656 1.076-.746 1.768-.4c.691.347 1.02 1.089.736 1.656m-4.751-.486c.034-.156 3.215-6.995 3.215-6.995l-.514-.258-2.958 6.823z"/>
      <path d="M308.855 176.707c.035-.156 3.215-6.995 3.215-6.995l-.514-.258-2.958 6.823z"/>
      <path d="m306.823 168.911 5.601.157-1.533 3.163-5.257-.432zm-47.302 212.543.176-10.741a92 92 0 0 0-6.476 1.97zm-.346 21.087.001-.067-.097.026zm32.453-123.939-84.33-4.751.4 5.304a7.28 7.28 0 0 0 2.457 4.921l1.429 1.255a22.2 22.2 0 0 0 13.967 5.509l4.916.152 4.622-5.694 24.413 1.233 1.574.08 18.607.939a3089 3089 0 0 0 13.896-7.664l-1.873-1.523zm-51.79 126.872.068 5.724a60 60 0 0 0 14.244 1.218 59 59 0 0 0 4.87-.376l.126-7.699a117 117 0 0 1-19.308 1.133m46.105-187.946 4.05-15.753a6.413 6.413 0 0 0-12.423-3.193l-2.158 8.394a33.05 33.05 0 0 0 10.531 10.552"/>
      <path d="M277.548 224.428a6.413 6.413 0 0 0 7.808-4.615l.587-2.285a33.06 33.06 0 0 1-10.53-10.552l-2.48 9.644a6.413 6.413 0 0 0 4.615 7.808m-17.305 146.144-.527-1.011-.019 1.152c.185-.05.364-.094.546-.14m61.905-146.999 4.035 3.514 17.015-54.158a2.544 2.544 0 0 0-2.427-3.307h-7.965l4.344 5.153z"/>
      <path d="M293.58 279.886a7345 7345 0 0 0 13.577-7.55l5.355-17.417 9.636-31.346 15.001-48.798-4.343-5.152L329 165.11l-37.294 113.254zm19.407-10.797 2.682-8.536-3.157-5.634-5.355 17.418zm-56.3-52.524 4.312-16.324a6.413 6.413 0 1 0-12.4-3.276l-2.372 8.977a28.1 28.1 0 0 0 10.46 10.623m38.051 194.504.143-11.266-1.408-2.86c-1.868-.01-3.767.01-5.71.082a133.5 133.5 0 0 0-21.477 2.56l.935 11.683a74.5 74.5 0 0 0 10.772 1.145 75 75 0 0 0 16.745-1.344m4.41-12.317c1.713 5.167 4.102 8.52 6.368 10.756a19.8 19.8 0 0 0 5.85-4.124c1.326-1.355 1.98-2.755 2.727-4.069l.224-.385a119 119 0 0 0-15.17-2.178Z"/>
      <path d="m322.148 223.574-9.636 31.345 3.157 5.634 3.008 5.366c10.654-5.932 21.3-11.834 31.907-17.578l-24.401-21.253z"/>
      <path d="M350.545 248.351v30.76l-.003.008a209 209 0 0 1-27.307 18.877 210 210 0 0 1-44.166 19.209l-.007-.001c-.91-.57-2.359-1.56-3.847-3.068.26.18.51.34.72.47 4.26-1.3 8.87-2.86 13.76-4.72 9.32-3.56 19.63-8.25 30.41-14.5a209 209 0 0 0 27.307-18.877l.003-.007v-26.45a.01.01 0 0 1 .005-.009c1.034-.576 2.078-1.133 3.112-1.7a.01.01 0 0 1 .013.008M221.647 391.38a91 91 0 0 1 13.111-9.909 91.3 91.3 0 0 1 24.939-10.758l.019-1.152-13.802-26.485a12.1 12.1 0 0 1-.846-9.12l12.818-42.117 1.616-5.308-24.414-1.233-4.621 5.694-4.695 5.784-20.753 25.565a65 65 0 0 0-5.217 9.913c-3.233 7.692-4.437 14.735-4.87 20a80.7 80.7 0 0 0 4.609 23.913c3.698 10.373 8.927 18.276 13.412 23.8l.312.084a92 92 0 0 1 8.382-8.671"/>
      <path d="M213.265 400.05a42 42 0 0 0 3.777.821c5.055.853 9.524.672 13.087.184l-8.482-9.675a92 92 0 0 0-8.382 8.67m26.363 5.421.21.003a117 117 0 0 0 19.308-1.133l.03-1.8-.097-.041.097-.026.345-21.02-6.3-8.771a91.3 91.3 0 0 0-18.463 8.788 91 91 0 0 0-13.11 9.909l8.482 9.675 1.297 1.48 2.306 2.63c1.9.145 3.861.254 5.895.306M225.551 290.84a22.2 22.2 0 0 1-13.967-5.51l-1.43-1.254a7.28 7.28 0 0 1-2.455-4.921l-.4-5.304-8.28-.467.3-.917a2.2 2.2 0 0 0-.311.776l-.876 5.15c-.56 3.301.54 6.666 2.944 8.997l3.44 3.335a21.46 21.46 0 0 0 14.934 6.05h6.321l4.696-5.784z"/>
      <path d="m207.299 273.85 84.329 4.752.078-.239L329 165.109l3.855-11.707a3.147 3.147 0 0 0-2.84-4.128l-88.996-4.237-25.86 79.028-12.105 36.988-3.735 11.414-.3.917zm65.634-57.23 2.48-9.645 2.157-8.393a6.413 6.413 0 1 1 12.423 3.193l-4.05 15.753-.587 2.285a6.413 6.413 0 1 1-12.423-3.193m8.441 24.9.976-7.447zl-.04.313 7.271.698-7.272-.698zm-37.533-26.549 2.386-9.03 2.371-8.976A6.413 6.413 0 1 1 261 200.24l-4.312 16.324-.445 1.683a6.413 6.413 0 1 1-12.4-3.277Z"/>
      <path d="M248.404 222.81a6.413 6.413 0 0 0 7.838-4.562l.445-1.683a28.1 28.1 0 0 1-10.46-10.623l-2.386 9.03a6.413 6.413 0 0 0 4.563 7.838m-16.977 179.724a28 28 0 0 1-1.176 2.313q1.7.18 3.482.318zm61.025-4.354q-.643-.01-1.292-.012l1.26 2.592zm15.032-224.85c-.239.54-.965.74-1.622.45s-.996-.963-.758-1.503c.239-.539.965-.74 1.622-.45s.996.964.758 1.503"/>
      <use xlink:href="#l"/>
      <path d="M311.913 173.567c-.238.54-.964.741-1.622.45s-.996-.963-.757-1.502c.238-.54.964-.741 1.621-.45.658.29.997.963.758 1.502m-4.429-.237c.025-.146 2.668-6.633 2.668-6.633l-.489-.216-2.437 6.462z"/>
      <path d="M311.899 173.62c.025-.146 2.668-6.633 2.668-6.633l-.489-.216-2.437 6.462z"/>
      <path d="m309.663 166.481 5.203-.107-1.28 3.003-4.896-.164zm-47.115 78.764a26.8 26.8 0 0 1-9.338-.423l-8.735-1.959-.56 1.036 3.782 5.93c3.443 5.4 10.889 6.454 15.696 2.225l8.002-7.039-.583-.85zm-7.312 163.631 7.558-7.74-7.623-18.261v18.032c-.53-.05-1.096-.13-1.706-.273a13 13 0 0 1-2.029-.658l-.03 1.8-.125 7.699c1.368-.16 2.66-.36 3.89-.587v.055l.064-.065h.002z"/>
      <path d="M229.737 399.998c-4.663 1.824-3.211 4.45-8.66 7.638-6.946 4.063-12.32 1.563-16.044 6.271-.478.604-1.256 2.682-1.637 4.952-.249 1.486.833 2.877 2.347 3.06a251.3 251.3 0 0 0 59.183.146c1.303-.151 2.314-1.207 2.386-2.501a139 139 0 0 0-.136-17.467 2 2 0 0 1-.006-.165v-1.566c-.403.096-.834.18-1.255.27a51 51 0 0 1-3.806.656s-2.293.312-4.685.414c-4.266.182-9.442-.584-11.551-.878-8.975-1.251-13.463-1.877-16.136-.83"/>
      <path d="M202.36 421.042a1.53 1.53 0 0 1 1.884-1.077c.676.182 1.381.362 2.1.542a116.8 116.8 0 0 0 31.351 3.443 116.7 116.7 0 0 0 28.593-4.337l.094-.026a1.53 1.53 0 0 1 1.814.837l.504 1.113a1.504 1.504 0 0 1-.935 2.059 110.2 110.2 0 0 1-32.51 4.883 110.2 110.2 0 0 1-32.084-4.797 1.506 1.506 0 0 1-1.025-1.825l.215-.815Z"/>
      <path d="m291.174 385.56-.032 2.958-.09 8.363a4.096 4.096 0 0 1-3.411 4.005 56 56 0 0 1-11.372.729 56.5 56.5 0 0 1-10.488-1.409v1.463q0 .267-.027.532a92.3 92.3 0 0 0 .027 19.364c.218.264.39 1.035 1.025 1.106a295 295 0 0 0 28.225 1.767c14.43.21 27.722-.657 39.667-2.097-.078-4.084-1.224-6.498-2.055-8.007-5.263-9.557-17.287-5.666-26.582-14.5-.48-.457-.978-.975-1.48-1.552-2.23-2.563-4.583-6.406-6.27-12.327a100 100 0 0 0-7.138-.394"/>
      <path d="M264.784 422.101c.196-.92 1.077-1.489 1.964-1.268.727.18 1.486.36 2.26.536a119 119 0 0 0 33.55 2.804 118.8 118.8 0 0 0 30.3-5.809l.1-.032c.77-.256 1.607.118 1.966.876l.581 1.229c.43.91.005 2.004-.915 2.334a112.2 112.2 0 0 1-34.453 6.551 112.6 112.6 0 0 1-34.385-4.295c-.842-.24-1.353-1.125-1.165-2.006zm6.072-129.738.212-.116c2.869-1.554 5.742-3.123 8.615-4.697l-18.607-.94-.088 5.325-1.272 77.626.527 1.011-.546.14-.176 10.742-.344 21.02a119 119 0 0 1 7.11-1.683 118 118 0 0 1 19.21-2.32c1.74-.066 3.438-.084 5.109-.075q.649.003 1.292.012a119 119 0 0 1 22.42 2.522v-.002l-21.453-88.436a211 211 0 0 1-13.759 4.718c-2.666-8.608-5.583-16.239-8.25-24.848Z"/>
      <path d="m312.987 269.089-5.83 3.248a7339 7339 0 0 1-13.578 7.55 3104 3104 0 0 1-13.896 7.663 2193 2193 0 0 1-8.63 4.705l-.273.316c-.66 1.835-2.869 8.869.674 16.205 2.303 4.769 5.922 7.358 7.652 8.434a211 211 0 0 0 13.759-4.718 209.5 209.5 0 0 0 30.415-14.499 209.6 209.6 0 0 0 25.734-17.606 4.2 4.2 0 0 0 1.57-3.29V248.34c-10.606 5.744-21.253 11.646-31.907 17.578z"/>
    </g>
    <path fill="#e1deff" d="M.087.174h540.13v538.435H.087z"/>
    <ellipse cx="273.217" cy="424.174" fill="#171751" rx="161.456" ry="25.726"/>
    <path fill="#feb241" d="m162.075 151.642-1.115-12.18a.31.31 0 0 0-.362-.278l-4.516.777a.937.937 0 0 0-.765 1.083l2.465 14.324a11.6 11.6 0 0 1 4.293-3.726m5.067-1.458a12 12 0 0 1 1.66.057l-.949-16.706a.447.447 0 0 0-.471-.421l-4.869.277a.94.94 0 0 0-.883.989l.248 4.356.713 12.547a12 12 0 0 1 4.551-1.1Z"/>
    <path fill="#feb241" d="M189.056 203.47a20 20 0 0 1-.71-.685c-3.345-3.388-5.08-8.08-5.08-12.874l-.376-19.268.034-.272 2.268-8.21c.135-.488.332-.956.588-1.393l8.87-15.172c.806-1.38-.175-3.127-1.759-3.127h-3.069a3.64 3.64 0 0 0-3.271 2.048l-2.975 6.126v-18.636c0-.753-.603-1.364-1.346-1.364h-6.428v21.218-20.218h-7.121v17.81a12 12 0 0 0-1.632-.15 11.7 11.7 0 0 0-4.545.838 11.5 11.5 0 0 0-4.554 3.32c-1.564 1.884-2.524 4.268-2.563 6.882-.068 4.61 2.725 8.61 6.774 10.396v37.39c0 6.013 2.473 11.813 6.975 15.73l.103.089a33 33 0 0 0 3.049 2.332c5.418 3.66 11.859 5.45 18.37 5.45h65.53v-23.826H200.49a17 17 0 0 1-11.435-4.435"/>
    <g fill="#d49436">
      <use xlink:href="#a"/>
      <use xlink:href="#b"/>
    </g>
    <path fill="#ed85c5" stroke="#c66fa4" stroke-miterlimit="10" stroke-width=".25" d="M201.238 207.834c-2.372-.003-4.733-.365-6.98-1.127l-.051-.018c-1.129-.384-2.217-1.146-3.057-1.581l-.137 1.782a22 22 0 0 0-.066 1.602 215 215 0 0 1-3.736 23.069 32 32 0 0 0 2.57.16c2.81.06 4.214.091 6.79.02 2.124-.058 15.426-.091 59.703-.01v-23.827z"/>
    <g fill="#c66fa4">
      <use xlink:href="#c"/>
      <use xlink:href="#d"/>
      <use xlink:href="#e"/>
      <use xlink:href="#f"/>
      <use xlink:href="#g"/>
      <use xlink:href="#h"/>
      <path d="m163.483 154.281 3.539-2.391.95 3.059-3.466 1.905z"/>
    </g>
    <path fill="#23237a" d="M370.093 144.662c0-10.513-8.523-19.036-19.037-19.036 10.514 0 19.037-8.523 19.037-19.037 0 10.514 8.523 19.037 19.037 19.037-10.514 0-19.037 8.523-19.037 19.036"/>
    <g fill="#ed85c5">
      <use xlink:href="#i"/>
      <use xlink:href="#j"/>
      <path d="m240.843 126.267 4.096-2.768 1.1 3.541-4.013 2.205z"/>
    </g>
    <g fill="#feb252">
      <use xlink:href="#k"/>
      <path d="M304.122 176.164c.034-.156 3.215-6.995 3.215-6.995l-.514-.258-2.958 6.823zm4.733.543c.035-.156 3.215-6.995 3.215-6.995l-.514-.258-2.958 6.823z"/>
      <path d="m306.823 168.911 5.601.157-1.533 3.163-5.257-.432z"/>
    </g>
    <path fill="#c66fa4" d="m259.521 381.454.176-10.741a92 92 0 0 0-6.476 1.97z"/>
    <path fill="#feb241" d="m259.175 402.541.001-.067-.097.026z"/>
    <path fill="#f3f2ff" d="m291.628 278.602-84.33-4.751.4 5.304a7.28 7.28 0 0 0 2.457 4.921l1.429 1.255a22.2 22.2 0 0 0 13.967 5.509l4.916.152 4.622-5.694 24.413 1.233 1.574.08 18.607.939a3089 3089 0 0 0 13.896-7.664l-1.873-1.523z"/>
    <path fill="#feb241" d="m239.838 405.474.068 5.724a60 60 0 0 0 14.244 1.218 59 59 0 0 0 4.87-.376l.126-7.699a117 117 0 0 1-19.308 1.133"/>
    <path fill="#f3f2ff" d="m285.943 217.528 4.05-15.753a6.413 6.413 0 0 0-12.423-3.193l-2.158 8.394a33.05 33.05 0 0 0 10.531 10.552"/>
    <path fill="#23237a" d="M277.548 224.428a6.413 6.413 0 0 0 7.808-4.615l.587-2.285a33.06 33.06 0 0 1-10.53-10.552l-2.48 9.644a6.413 6.413 0 0 0 4.615 7.808"/>
    <path fill="#ed85c5" d="m260.243 370.572-.527-1.011-.019 1.152c.185-.05.364-.094.546-.14"/>
    <path fill="#47b69e" d="m322.148 223.574 4.035 3.514 17.015-54.158a2.544 2.544 0 0 0-2.427-3.307h-7.965l4.344 5.153z"/>
    <path fill="#f3f2ff" d="M293.58 279.886a7345 7345 0 0 0 13.577-7.55l5.355-17.417 9.636-31.346 15.001-48.798-4.343-5.152L329 165.11l-37.294 113.254z"/>
    <path fill="#39917f" d="m312.987 269.089 2.682-8.536-3.157-5.634-5.355 17.418z"/>
    <path fill="#f3f2ff" d="m256.687 216.565 4.312-16.324a6.413 6.413 0 1 0-12.4-3.276l-2.372 8.977a28.1 28.1 0 0 0 10.46 10.623"/>
    <path fill="#feb241" d="m294.738 411.069.143-11.266-1.408-2.86c-1.868-.01-3.767.01-5.71.082a133.5 133.5 0 0 0-21.477 2.56l.935 11.683a74.5 74.5 0 0 0 10.772 1.145 75 75 0 0 0 16.745-1.344"/>
    <path fill="#c66fa4" d="M299.148 398.752c1.713 5.167 4.102 8.52 6.368 10.756a19.8 19.8 0 0 0 5.85-4.124c1.326-1.355 1.98-2.755 2.727-4.069l.224-.385a119 119 0 0 0-15.17-2.178Z"/>
    <path fill="#ed85c5" d="m322.148 223.574-9.636 31.345 3.157 5.634 3.008 5.366c10.654-5.932 21.3-11.834 31.907-17.578l-24.401-21.253z"/>
    <path fill="#feb241" d="M350.545 248.351v30.76l-.003.008a209 209 0 0 1-27.307 18.877 210 210 0 0 1-44.166 19.209l-.007-.001c-.91-.57-2.359-1.56-3.847-3.068.26.18.51.34.72.47 4.26-1.3 8.87-2.86 13.76-4.72 9.32-3.56 19.63-8.25 30.41-14.5a209 209 0 0 0 27.307-18.877l.003-.007v-26.45a.01.01 0 0 1 .005-.009c1.034-.576 2.078-1.133 3.112-1.7a.01.01 0 0 1 .013.008" opacity=".2"/>
    <path fill="#ed85c5" d="M221.647 391.38a91 91 0 0 1 13.111-9.909 91.3 91.3 0 0 1 24.939-10.758l.019-1.152-13.802-26.485a12.1 12.1 0 0 1-.846-9.12l12.818-42.117 1.616-5.308-24.414-1.233-4.621 5.694-4.695 5.784-20.753 25.565a65 65 0 0 0-5.217 9.913c-3.233 7.692-4.437 14.735-4.87 20a80.7 80.7 0 0 0 4.609 23.913c3.698 10.373 8.927 18.276 13.412 23.8l.312.084a92 92 0 0 1 8.382-8.671"/>
    <path fill="#c66fa4" d="M213.265 400.05a42 42 0 0 0 3.777.821c5.055.853 9.524.672 13.087.184l-8.482-9.675a92 92 0 0 0-8.382 8.67"/>
    <path fill="#feb241" d="m239.628 405.471.21.003a117 117 0 0 0 19.308-1.133l.03-1.8-.097-.041.097-.026.345-21.02-6.3-8.771a91.3 91.3 0 0 0-18.463 8.788 91 91 0 0 0-13.11 9.909l8.482 9.675 1.297 1.48 2.306 2.63c1.9.145 3.861.254 5.895.306"/>
    <path fill="#47b69e" d="M225.551 290.84a22.2 22.2 0 0 1-13.967-5.51l-1.43-1.254a7.28 7.28 0 0 1-2.455-4.921l-.4-5.304-8.28-.467.3-.917a2.2 2.2 0 0 0-.311.776l-.876 5.15c-.56 3.301.54 6.666 2.944 8.997l3.44 3.335a21.46 21.46 0 0 0 14.934 6.05h6.321l4.696-5.784z"/>
    <path fill="#55dabe" d="m207.299 273.85 84.329 4.752.078-.239L329 165.109l3.855-11.707a3.147 3.147 0 0 0-2.84-4.128l-88.996-4.237-25.86 79.028-12.105 36.988-3.735 11.414-.3.917zm65.634-57.23 2.48-9.645 2.157-8.393a6.413 6.413 0 1 1 12.423 3.193l-4.05 15.753-.587 2.285a6.413 6.413 0 1 1-12.423-3.193m8.441 24.9.976-7.447zl-.04.313 7.271.698-7.272-.698zm-37.533-26.549 2.386-9.03 2.371-8.976A6.413 6.413 0 1 1 261 200.24l-4.312 16.324-.445 1.683a6.413 6.413 0 1 1-12.4-3.277Z"/>
    <path fill="#23237a" d="M248.404 222.81a6.413 6.413 0 0 0 7.838-4.562l.445-1.683a28.1 28.1 0 0 1-10.46-10.623l-2.386 9.03a6.413 6.413 0 0 0 4.563 7.838"/>
    <path fill="#e1deff" d="M231.427 402.534a28 28 0 0 1-1.176 2.313q1.7.18 3.482.318z"/>
    <path fill="#d49436" d="M292.452 398.18q-.643-.01-1.292-.012l1.26 2.592z"/>
    <g fill="#4e3042" opacity=".85" style="mix-blend-mode:screen">
      <use xlink:href="#l"/>
      <path d="M307.484 173.33c.025-.146 2.668-6.633 2.668-6.633l-.489-.216-2.437 6.462zm4.415.29c.025-.146 2.668-6.633 2.668-6.633l-.489-.216-2.437 6.462z"/>
      <path d="m309.663 166.481 5.203-.107-1.28 3.003-4.896-.164z"/>
    </g>
    <path fill="#eb91c5" d="M262.548 245.245a26.8 26.8 0 0 1-9.338-.423l-8.735-1.959-.56 1.036 3.782 5.93c3.443 5.4 10.889 6.454 15.696 2.225l8.002-7.039-.583-.85z" style="mix-blend-mode:screen"/>
    <path fill="#feb241" d="m255.236 408.876 7.558-7.74-7.623-18.261v18.032c-.53-.05-1.096-.13-1.706-.273a13 13 0 0 1-2.029-.658l-.03 1.8-.125 7.699c1.368-.16 2.66-.36 3.89-.587v.055l.064-.065h.002z"/>
    <g stroke="#2b6d5f" stroke-miterlimit="10">
      <path fill="#fff" stroke-width=".123" d="M229.737 399.998c-4.663 1.824-3.211 4.45-8.66 7.638-6.946 4.063-12.32 1.563-16.044 6.271-.478.604-1.256 2.682-1.637 4.952-.249 1.486.833 2.877 2.347 3.06a251.3 251.3 0 0 0 59.183.146c1.303-.151 2.314-1.207 2.386-2.501a139 139 0 0 0-.136-17.467 2 2 0 0 1-.006-.165v-1.566c-.403.096-.834.18-1.255.27a51 51 0 0 1-3.806.656s-2.293.312-4.685.414c-4.266.182-9.442-.584-11.551-.878-8.975-1.251-13.463-1.877-16.136-.83Z"/>
      <path fill="#b7b3d5" stroke-width=".134" d="M202.36 421.042a1.53 1.53 0 0 1 1.884-1.077c.676.182 1.381.362 2.1.542a116.8 116.8 0 0 0 31.351 3.443 116.7 116.7 0 0 0 28.593-4.337l.094-.026a1.53 1.53 0 0 1 1.814.837l.504 1.113a1.504 1.504 0 0 1-.935 2.059 110.2 110.2 0 0 1-32.51 4.883 110.2 110.2 0 0 1-32.084-4.797 1.506 1.506 0 0 1-1.025-1.825l.215-.815Z"/>
    </g>
    <g stroke="#2b6d5f" stroke-miterlimit="10">
      <path fill="#fff" stroke-width=".119" d="m291.174 385.56-.032 2.958-.09 8.363a4.096 4.096 0 0 1-3.411 4.005 56 56 0 0 1-11.372.729 56.5 56.5 0 0 1-10.488-1.409v1.463q0 .267-.027.532a92.3 92.3 0 0 0 .027 19.364c.218.264.39 1.035 1.025 1.106a295 295 0 0 0 28.225 1.767c14.43.21 27.722-.657 39.667-2.097-.078-4.084-1.224-6.498-2.055-8.007-5.263-9.557-17.287-5.666-26.582-14.5-.48-.457-.978-.975-1.48-1.552-2.23-2.563-4.583-6.406-6.27-12.327a100 100 0 0 0-7.138-.394Z"/>
      <path fill="#b7b3d5" stroke-width=".147" d="M264.784 422.101c.196-.92 1.077-1.489 1.964-1.268.727.18 1.486.36 2.26.536a119 119 0 0 0 33.55 2.804 118.8 118.8 0 0 0 30.3-5.809l.1-.032c.77-.256 1.607.118 1.966.876l.581 1.229c.43.91.005 2.004-.915 2.334a112.2 112.2 0 0 1-34.453 6.551 112.6 112.6 0 0 1-34.385-4.295c-.842-.24-1.353-1.125-1.165-2.006z"/>
    </g>
    <path fill="#ed85c5" d="m270.856 292.363.212-.116c2.869-1.554 5.742-3.123 8.615-4.697l-18.607-.94-.088 5.325-1.272 77.626.527 1.011-.546.14-.176 10.742-.344 21.02a119 119 0 0 1 7.11-1.683 118 118 0 0 1 19.21-2.32c1.74-.066 3.438-.084 5.109-.075q.649.003 1.292.012a119 119 0 0 1 22.42 2.522v-.002l-21.453-88.436a211 211 0 0 1-13.759 4.718c-2.666-8.608-5.583-16.239-8.25-24.848Z"/>
    <path fill="#feb241" d="m312.987 269.089-5.83 3.248a7339 7339 0 0 1-13.578 7.55 3104 3104 0 0 1-13.896 7.663 2193 2193 0 0 1-8.63 4.705l-.273.316c-.66 1.835-2.869 8.869.674 16.205 2.303 4.769 5.922 7.358 7.652 8.434a211 211 0 0 0 13.759-4.718 209.5 209.5 0 0 0 30.415-14.499 209.6 209.6 0 0 0 25.734-17.606 4.2 4.2 0 0 0 1.57-3.29V248.34c-10.606 5.744-21.253 11.646-31.907 17.578z"/>
  </g>
</svg>
